# xmcd CD database file
#
# Track frame offsets:
#	182
#	9957
#	20992
#	33657
#	45285
#	56432
#	68252
#	78095
#	90595
#	104620
#	115347
#	126380
#	138582
#	152397
#	161900
#	172497
#	184967
#	198787
#	208225
#	219432
#	231672
#	245682
#	257172
#	268022
#	280825
#	288925
#	301727
#	314385
#	327930
#
# Disc length: 4509 seconds
#
# Revision: 6
# Processed by: cddbd v1.5.2PL0 Copyright (c) Steve Scherf et al.
# Submitted via: CDex 1.99
#
DISCID=ab119b1d
DTITLE=Various Artist - The Chess Story 1947-1975 CD 8: 1957-1959
DYEAR=1999
DGENRE=Soul/R&B
TTITLE0=Johnny Fuller - You Got Me Whistlin'
TTITLE1=Eddie Bo - Oh-Oh
TTITLE2=Chuck Berry - Carol
TTITLE3=Dale Hawkins - La-Do-Dada
TTITLE4=Myles and Dupont - Loud Mouth Annie
TTITLE5=L.C. Cooke - Do You Remember?
TTITLE6=Lou Josie - Vacation's Over
TTITLE7=Little Walter - Key To The Highway
TTITLE8=Muddy Waters - Close To You
TTITLE9=Chuck Berry - Sweet Little Rock And Roller
TTITLE10=Bo Diddley - I'm Sorry
TTITLE11=Rusty York - Sugaree
TTITLE12=The Sonics - This Broken Heart
TTITLE13=Bo Diddley - Crackin' Up
TTITLE14=Chuck Berry - Almost Grown
TTITLE15=Rod Bernard - This Should Go On Forever
TTITLE16=Sugarpie DeSanto - I Want To Know
TTITLE17=Mel Robins - Save It
TTITLE18=Chuck Berry - Back In The U.S.A.
TTITLE19=The Miracles - Bad Girl
TTITLE20=Sonny Boy Williamson - Unseeing Eye
TTITLE21=Howlin' Wolf - Howlin' For My Darlin'
TTITLE22=The Calvaes - Anna Macora
TTITLE23=Little Walter - Everything's Gonna Be Alright
TTITLE24=Chuck Berry - Let It Rock
TTITLE25=Bo Diddley - Road Runner
TTITLE26=Bobby Saxton - Trying To Make A Living
TTITLE27=Gene Simmons - Goin' Back To Memphis
TTITLE28=Buddy Guy - First Time I Met The Blues
EXTD=YEAR: 1999
EXTT0=
EXTT1=
EXTT2=
EXTT3=
EXTT4=
EXTT5=
EXTT6=
EXTT7=
EXTT8=
EXTT9=
EXTT10=
EXTT11=
EXTT12=
EXTT13=
EXTT14=
EXTT15=
EXTT16=
EXTT17=
EXTT18=
EXTT19=
EXTT20=
EXTT21=
EXTT22=
EXTT23=
EXTT24=
EXTT25=
EXTT26=
EXTT27=
EXTT28=
PLAYORDER=
